<svg width="30" height="30" viewBox="0 0 30 30" fill="none" xmlns="http://www.w3.org/2000/svg">
<mask id="mask0_24_176" style="mask-type:alpha" maskUnits="userSpaceOnUse" x="0" y="0" width="30" height="30">
<rect width="30" height="30" fill="#D9D9D9"/>
</mask>
<g mask="url(#mask0_24_176)">
<path d="M7.5 26.25C6.79479 26.25 6.20188 26.0096 5.72125 25.5288C5.24042 25.0481 5 24.4552 5 23.75V20.2884H8.75V3.75H25V23.75C25 24.4552 24.7596 25.0481 24.2787 25.5288C23.7981 26.0096 23.2052 26.25 22.5 26.25H7.5ZM22.5 25C22.8542 25 23.151 24.8802 23.3906 24.6406C23.6302 24.401 23.75 24.1042 23.75 23.75V5H10V20.2884H21.25V23.75C21.25 24.1042 21.3698 24.401 21.6094 24.6406C21.849 24.8802 22.1458 25 22.5 25ZM11.7306 10.4806V9.23063H22.0194V10.4806H11.7306ZM11.7306 13.9422V12.6922H22.0194V13.9422H11.7306ZM7.5 25H20V21.5384H6.25V23.75C6.25 24.1042 6.36979 24.401 6.60938 24.6406C6.84896 24.8802 7.14583 25 7.5 25ZM7.5 25H6.25H20H7.5Z" fill="#FF7272"/>
</g>
</svg>
