<svg width="30" height="30" viewBox="0 0 30 30" fill="none" xmlns="http://www.w3.org/2000/svg">
<path d="M14.9537 2.97754C0.6925 3.27629 -2.275 22.4125 11.065 27.0025C11.6875 27.1188 11.92 26.7288 11.92 26.405V24.305C8.4325 25.0563 7.695 22.6588 7.695 22.6588C7.46127 21.9083 6.96345 21.2679 6.29375 20.8563C5.16625 20.0913 6.38375 20.1038 6.38375 20.1038C6.78261 20.1559 7.16383 20.3004 7.49712 20.5256C7.83041 20.7508 8.1066 21.0507 8.30375 21.4013C8.65733 22.0168 9.23841 22.4689 9.92195 22.6604C10.6055 22.8519 11.3369 22.7673 11.9587 22.425C12.0237 21.8 12.3025 21.2188 12.75 20.7788C9.9625 20.4663 7.045 19.4038 7.045 14.685C7.02841 13.4557 7.4942 12.2687 8.3425 11.3788C7.94929 10.3073 7.99557 9.12381 8.47125 8.08629C8.47125 8.08629 9.52125 7.76129 11.9212 9.38254C13.9759 8.82598 16.1416 8.82598 18.1962 9.38254C20.5812 7.78754 21.6312 8.08504 21.6312 8.08504C22.0875 9.12004 22.1287 10.2888 21.7475 11.3525C22.5965 12.242 23.062 13.4294 23.0437 14.6588C23.0437 19.3913 20.1137 20.4413 17.3262 20.74C18.6237 21.4275 18.0787 25.8475 18.1562 26.3925C18.1562 26.7163 18.3762 27.105 19.025 26.9888C32.3275 22.4388 29.215 3.27629 14.9537 2.97754Z" fill="#FF7272"/>
</svg>
