<svg width="30" height="30" viewBox="0 0 30 30" fill="none" xmlns="http://www.w3.org/2000/svg">
<mask id="mask0_24_386" style="mask-type:alpha" maskUnits="userSpaceOnUse" x="0" y="0" width="30" height="30">
<rect width="30" height="30" fill="#FF7272"/>
</mask>
<g mask="url(#mask0_24_386)">
<path d="M13.2694 20.0959H8.84625C7.43625 20.0959 6.23438 19.5992 5.24063 18.6056C4.24687 17.6121 3.75 16.4105 3.75 15.0009C3.75 13.5914 4.24687 12.3894 5.24063 11.395C6.23438 10.4006 7.43625 9.90344 8.84625 9.90344H13.2694V11.1534H8.84625C7.78854 11.1534 6.88302 11.5301 6.12969 12.2834C5.37656 13.0366 5 13.942 5 14.9997C5 16.0574 5.37656 16.9628 6.12969 17.7159C6.88302 18.4693 7.78854 18.8459 8.84625 18.8459H13.2694V20.0959ZM10.625 15.6247V14.3747H19.375V15.6247H10.625ZM16.7306 20.0959V18.8459H21.1537C22.2115 18.8459 23.117 18.4693 23.8703 17.7159C24.6234 16.9628 25 16.0574 25 14.9997C25 13.942 24.6234 13.0366 23.8703 12.2834C23.117 11.5301 22.2115 11.1534 21.1537 11.1534H16.7306V9.90344H21.1537C22.5637 9.90344 23.7656 10.4002 24.7594 11.3938C25.7531 12.3873 26.25 13.5889 26.25 14.9984C26.25 16.408 25.7531 17.61 24.7594 18.6044C23.7656 19.5988 22.5637 20.0959 21.1537 20.0959H16.7306Z" fill="#FF7272"/>
</g>
</svg>
