<svg width="30" height="30" viewBox="0 0 30 30" fill="none" xmlns="http://www.w3.org/2000/svg">
<g clip-path="url(#clip0_24_400)">
<path d="M21.4306 21.4346H18.5747V16.9596C18.5747 15.8924 18.553 14.5191 17.0865 14.5191C15.5975 14.5191 15.3701 15.6803 15.3701 16.8808V21.4346H12.5142V12.2321H15.2576V13.4865H15.2946C15.6779 12.7633 16.61 11.9999 18.0026 11.9999C20.8963 11.9999 21.4314 13.9044 21.4314 16.3834L21.4306 21.4346ZM9.28866 10.9729C9.07073 10.9733 8.85489 10.9305 8.65351 10.8473C8.45213 10.764 8.26919 10.6417 8.11516 10.4875C7.96114 10.3334 7.83908 10.1503 7.75597 9.94884C7.67287 9.74738 7.63036 9.5315 7.63089 9.31357C7.63105 8.98554 7.72848 8.66492 7.91086 8.39225C8.09324 8.11959 8.35237 7.90713 8.6555 7.78175C8.95862 7.65636 9.29212 7.62368 9.61382 7.68783C9.93552 7.75198 10.231 7.91009 10.4628 8.14216C10.6947 8.37422 10.8525 8.66983 10.9163 8.99159C10.9802 9.31335 10.9472 9.64682 10.8215 9.94983C10.6958 10.2528 10.4831 10.5118 10.2102 10.6939C9.93741 10.876 9.6167 10.9731 9.28866 10.9729ZM10.7206 21.4346H7.8567V12.2321H10.7206V21.4346ZM22.8594 5H6.42313C5.63643 5 5 5.62196 5 6.38938V22.8963C5 23.6646 5.63643 24.2857 6.42313 24.2857H22.857C23.6429 24.2857 24.2857 23.6646 24.2857 22.8963V6.38938C24.2857 5.62196 23.6429 5 22.857 5H22.8594Z" fill="#FF7272"/>
</g>
<defs>
<clipPath id="clip0_24_400">
<rect width="19.2857" height="19.2857" fill="white" transform="translate(5 5)"/>
</clipPath>
</defs>
</svg>
