<svg width="30" height="30" viewBox="0 0 30 30" fill="none" xmlns="http://www.w3.org/2000/svg">
<mask id="mask0_24_203" style="mask-type:alpha" maskUnits="userSpaceOnUse" x="0" y="0" width="30" height="30">
<rect width="30" height="30" fill="#D9D9D9"/>
</mask>
<g mask="url(#mask0_24_203)">
<path d="M15.0044 14.6634C15.5608 14.6634 16.0357 14.4653 16.4291 14.0691C16.8226 13.6728 17.0194 13.1965 17.0194 12.64C17.0194 12.0835 16.8212 11.6085 16.4247 11.215C16.0285 10.8217 15.5521 10.625 14.9956 10.625C14.4392 10.625 13.9643 10.8231 13.5709 11.2194C13.1774 11.6156 12.9806 12.092 12.9806 12.6484C12.9806 13.2049 13.1789 13.6799 13.5753 14.0734C13.9716 14.4668 14.4479 14.6634 15.0044 14.6634ZM15 24.5963C17.3494 22.5513 19.2068 20.4715 20.5722 18.3569C21.9376 16.2423 22.6203 14.4134 22.6203 12.8703C22.6203 10.5834 21.8964 8.69594 20.4485 7.20781C19.0005 5.7199 17.1844 4.97594 15 4.97594C12.8156 4.97594 10.9995 5.7199 9.55157 7.20781C8.10366 8.69594 7.3797 10.5834 7.3797 12.8703C7.3797 14.4134 8.06241 16.2423 9.42782 18.3569C10.7932 20.4715 12.6506 22.5513 15 24.5963ZM15 26.2741C12.0625 23.6764 9.8498 21.2536 8.36189 19.0059C6.87376 16.7584 6.1297 14.7132 6.1297 12.8703C6.1297 10.2259 6.99074 8.04479 8.71282 6.32688C10.4347 4.60896 12.5304 3.75 15 3.75C17.4696 3.75 19.5653 4.60896 21.2872 6.32688C23.0093 8.04479 23.8703 10.2259 23.8703 12.8703C23.8703 14.7132 23.1263 16.7584 21.6381 19.0059C20.1502 21.2536 17.9375 23.6764 15 26.2741Z" fill="#FF7272"/>
</g>
</svg>
