<svg width="30" height="30" viewBox="0 0 30 30" fill="none" xmlns="http://www.w3.org/2000/svg">
<mask id="mask0_24_393" style="mask-type:alpha" maskUnits="userSpaceOnUse" x="0" y="0" width="30" height="30">
<rect width="30" height="30" fill="#D9D9D9"/>
</mask>
<g mask="url(#mask0_24_393)">
<path d="M5.76937 23.7502C5.19396 23.7502 4.71354 23.5575 4.32812 23.1721C3.94271 22.7867 3.75 22.3063 3.75 21.7309V8.26962C3.75 7.6942 3.94271 7.21379 4.32812 6.82837C4.71354 6.44295 5.19396 6.25024 5.76937 6.25024H24.2306C24.806 6.25024 25.2865 6.44295 25.6719 6.82837C26.0573 7.21379 26.25 7.6942 26.25 8.26962V21.7309C26.25 22.3063 26.0573 22.7867 25.6719 23.1721C25.2865 23.5575 24.806 23.7502 24.2306 23.7502H5.76937ZM15 15.1446L5 8.60587V21.7309C5 21.9552 5.07208 22.1396 5.21625 22.284C5.36062 22.4282 5.545 22.5002 5.76937 22.5002H24.2306C24.455 22.5002 24.6394 22.4282 24.7838 22.284C24.9279 22.1396 25 21.9552 25 21.7309V8.60587L15 15.1446ZM15 13.7502L24.6153 7.50024H5.38469L15 13.7502ZM5 8.60587V7.50024V21.7309C5 21.9552 5.07208 22.1396 5.21625 22.284C5.36062 22.4282 5.545 22.5002 5.76937 22.5002H5V8.60587Z" fill="#FF7272"/>
</g>
</svg>
