<svg width="30" height="30" viewBox="0 0 30 30" fill="none" xmlns="http://www.w3.org/2000/svg">
<mask id="mask0_24_185" style="mask-type:alpha" maskUnits="userSpaceOnUse" x="0" y="0" width="30" height="30">
<rect width="30" height="30" fill="#D9D9D9"/>
</mask>
<g mask="url(#mask0_24_185)">
<path d="M20.1393 25L19.2787 24.1394L21.2474 22.1394L19.2787 20.1706L20.1393 19.2788L22.1393 21.2788L24.1081 19.2788L24.9999 20.1706L22.9999 22.1394L24.9999 24.1394L24.1081 25L22.1393 23.0313L20.1393 25ZM8.12494 23.75C8.63931 23.75 9.08046 23.5661 9.44838 23.1984C9.81608 22.8305 9.99994 22.3894 9.99994 21.875C9.99994 21.3606 9.81608 20.9195 9.44838 20.5516C9.08046 20.1839 8.63931 20 8.12494 20C7.61056 20 7.16942 20.1839 6.8015 20.5516C6.43379 20.9195 6.24994 21.3606 6.24994 21.875C6.24994 22.3894 6.43379 22.8305 6.8015 23.1984C7.16942 23.5661 7.61056 23.75 8.12494 23.75ZM8.12494 25C7.25952 25 6.52233 24.6955 5.91338 24.0866C5.30442 23.4776 4.99994 22.7404 4.99994 21.875C4.99994 21.0096 5.30442 20.2724 5.91338 19.6634C6.52233 19.0545 7.25952 18.75 8.12494 18.75C8.86369 18.75 9.51869 18.9796 10.0899 19.4388C10.6614 19.8979 11.0208 20.4921 11.1681 21.2213C12.141 21.1363 12.9587 20.7364 13.6212 20.0216C14.2839 19.3068 14.6152 18.4663 14.6152 17.5V12.8606C14.6152 11.3077 15.1645 9.98198 16.2631 8.88344C17.3616 7.7849 18.6873 7.23563 20.2402 7.23563H22.5912L19.9974 4.64187L20.8893 3.75L24.9999 7.86063L20.8893 11.9713L19.9974 11.1106L22.5671 8.48563H20.2402C19.0223 8.48563 17.9887 8.91031 17.1393 9.75969C16.2899 10.6091 15.8652 11.6427 15.8652 12.8606V17.5C15.8652 18.8125 15.4117 19.9427 14.5046 20.8906C13.5977 21.8385 12.4905 22.3678 11.1828 22.4784C11.0448 23.2172 10.6879 23.8221 10.1118 24.2931C9.53556 24.7644 8.87327 25 8.12494 25ZM5.86056 10.7213L4.99994 9.86063L6.96869 7.86063L4.99994 5.89187L5.86056 5L7.86056 7L9.82931 5L10.7212 5.89187L8.72119 7.86063L10.7212 9.86063L9.82931 10.7213L7.86056 8.7525L5.86056 10.7213Z" fill="#FF7272"/>
</g>
</svg>
