<svg width="30" height="30" viewBox="0 0 30 30" fill="none" xmlns="http://www.w3.org/2000/svg">
<mask id="mask0_24_206" style="mask-type:alpha" maskUnits="userSpaceOnUse" x="0" y="0" width="30" height="30">
<rect width="30" height="30" fill="#D9D9D9"/>
</mask>
<g mask="url(#mask0_24_206)">
<path d="M5.76937 25C5.19396 25 4.71354 24.8073 4.32812 24.4219C3.94271 24.0365 3.75 23.556 3.75 22.9806V10.7694C3.75 10.194 3.94271 9.71354 4.32812 9.32812C4.71354 8.94271 5.19396 8.75 5.76937 8.75H11.25V7.01906C11.25 6.44385 11.4427 5.96354 11.8281 5.57812C12.2135 5.19271 12.694 5 13.2694 5H16.7306C17.306 5 17.7865 5.19271 18.1719 5.57812C18.5573 5.96354 18.75 6.44385 18.75 7.01906V8.75H24.2306C24.806 8.75 25.2865 8.94271 25.6719 9.32812C26.0573 9.71354 26.25 10.194 26.25 10.7694V22.9806C26.25 23.556 26.0573 24.0365 25.6719 24.4219C25.2865 24.8073 24.806 25 24.2306 25H5.76937ZM5.76937 23.75H24.2306C24.4231 23.75 24.5995 23.6699 24.7597 23.5097C24.9199 23.3495 25 23.1731 25 22.9806V10.7694C25 10.5769 24.9199 10.4005 24.7597 10.2403C24.5995 10.0801 24.4231 10 24.2306 10H5.76937C5.57687 10 5.40052 10.0801 5.24031 10.2403C5.0801 10.4005 5 10.5769 5 10.7694V22.9806C5 23.1731 5.0801 23.3495 5.24031 23.5097C5.40052 23.6699 5.57687 23.75 5.76937 23.75ZM12.5 8.75H17.5V7.01906C17.5 6.82677 17.4199 6.65052 17.2597 6.49031C17.0995 6.3301 16.9231 6.25 16.7306 6.25H13.2694C13.0769 6.25 12.9005 6.3301 12.7403 6.49031C12.5801 6.65052 12.5 6.82677 12.5 7.01906V8.75Z" fill="#FF7272"/>
</g>
</svg>
